<svg xmlns="http://www.w3.org/2000/svg"
     width="1400" height="420" viewBox="0 0 1400 420">

  <defs>
    <!-- 背景グラデーション（左やや暖色、右クール） -->
    <linearGradient id="bgGrad" x1="0%" y1="0%" x2="100%" y2="0%">
      <stop offset="0%"   stop-color="#f9f7f3"/>
      <stop offset="40%"  stop-color="#eef3fb"/>
      <stop offset="100%" stop-color="#dbe8f6"/>
    </linearGradient>

    <!-- グリッド -->
    <pattern id="gridPattern" x="0" y="0" width="36" height="36"
             patternUnits="userSpaceOnUse">
      <path d="M36 0 L0 0 0 36"
            fill="none"
            stroke="#cfd8ea"
            stroke-width="0.35"
            stroke-opacity="0.35"/>
    </pattern>

    <!-- 中央フィールドのグロー -->
    <radialGradient id="fieldGlow" cx="50%" cy="50%" r="60%">
      <stop offset="0%"  stop-color="#ffffff" stop-opacity="0.9"/>
      <stop offset="45%" stop-color="#e6f3ff" stop-opacity="0.55"/>
      <stop offset="100%" stop-color="#e6f3ff" stop-opacity="0"/>
    </radialGradient>

    <!-- バトン本体（左オレンジ → 右ティール） -->
    <linearGradient id="batonGrad" x1="0%" y1="0%" x2="100%" y2="0%">
      <stop offset="0%"   stop-color="#ffb86a" stop-opacity="1"/>
      <stop offset="50%"  stop-color="#ffd9a0" stop-opacity="1"/>
      <stop offset="100%" stop-color="#48cfe4" stop-opacity="1"/>
    </linearGradient>

    <!-- バトン周囲のハロー -->
    <radialGradient id="batonGlow" cx="50%" cy="50%" r="70%">
      <stop offset="0%"  stop-color="#fff9eb" stop-opacity="0.95"/>
      <stop offset="40%" stop-color="#ffe0b0" stop-opacity="0.75"/>
      <stop offset="100%" stop-color="#ffe0b0" stop-opacity="0"/>
    </radialGradient>

    <!-- 構造フィールドのリングストローク -->
    <linearGradient id="ringStroke" x1="0%" y1="0%" x2="100%" y2="0%">
      <stop offset="0%"   stop-color="#7fd6e8" stop-opacity="0.8"/>
      <stop offset="50%"  stop-color="#c6bbff" stop-opacity="0.8"/>
      <stop offset="100%" stop-color="#7fd6e8" stop-opacity="0.8"/>
    </linearGradient>
  </defs>

  <!-- 背景 -->
  <rect x="0" y="0" width="1400" height="420" fill="url(#bgGrad)"/>
  <rect x="0" y="0" width="1400" height="420" fill="url(#gridPattern)" opacity="0.22"/>
  <rect x="0" y="0" width="1400" height="420" fill="url(#fieldGlow)" opacity="0.9"/>

  <!-- 中央の構造フィールド（円環＋レイヤー） -->
  <g transform="translate(700,210)" fill="none">
    <!-- 同心円 -->
    <g stroke="url(#ringStroke)" stroke-width="0.9" opacity="0.7">
      <circle cx="0" cy="0" r="70"/>
      <circle cx="0" cy="0" r="110"/>
      <circle cx="0" cy="0" r="150"/>
    </g>
    <!-- レイヤー化されたプレート -->
    <g stroke="#90b5c8" stroke-width="0.8" opacity="0.55">
      <rect x="-160" y="-60" width="320" height="120" rx="18" ry="18"/>
      <rect x="-120" y="-40" width="240" height="80"  rx="16" ry="16"/>
      <rect x="-80"  y="-24" width="160" height="48"  rx="14" ry="14"/>
    </g>
  </g>

  <!-- バトンのハロー -->
  <ellipse cx="700" cy="210" rx="160" ry="60"
           fill="url(#batonGlow)" opacity="0.95"/>

  <!-- バトン本体（少し上向きに傾ける） -->
  <g transform="translate(700,210) rotate(-8)">
    <rect x="-80" y="-12" width="160" height="24" rx="12" ry="12"
          fill="url(#batonGrad)" stroke="#ffffff" stroke-width="2"/>
  </g>

  <!-- ===================== 左の手（受け手：次世代・社会） ===================== -->
  <g fill="none" stroke="#122531"
     stroke-width="2.1" stroke-linecap="round" stroke-linejoin="round" opacity="0.97">
    <!-- 前腕 -->
    <path d="M 80 250
             C 150 245 220 235 290 220"/>
    <!-- 手の甲 -->
    <path d="M 290 220
             C 315 215 340 210 365 208"/>
    <!-- 親指 -->
    <path d="M 338 214
             C 345 210 352 207 360 205"/>
    <!-- 人差し指 -->
    <path d="M 352 209
             C 360 208 368 207 376 207"/>
    <!-- 中指 -->
    <path d="M 348 212
             C 355 212 363 213 370 214"/>
    <!-- 薬指 -->
    <path d="M 344 214
             C 352 216 360 218 366 220"/>
    <!-- 小指 -->
    <path d="M 340 216
             C 347 220 353 224 358 227"/>
  </g>

  <!-- ===================== 右の手（渡し手：UCL） ===================== -->
  <g fill="none" stroke="#122531"
     stroke-width="2.1" stroke-linecap="round" stroke-linejoin="round" opacity="0.97">
    <!-- 前腕 -->
    <path d="M 1320 170
             C 1250 175 1180 185 1110 200"/>
    <!-- 手の甲 -->
    <path d="M 1110 200
             C 1085 204 1060 208 1035 210"/>
    <!-- 親指 -->
    <path d="M 1062 205
             C 1054 201 1048 198 1040 196"/>
    <!-- 人差し指（バトンを挟む） -->
    <path d="M 1050 204
             C 1040 203 1030 202 1020 202"/>
    <!-- 中指 -->
    <path d="M 1046 208
             C 1037 209 1028 211 1019 213"/>
    <!-- 薬指 -->
    <path d="M 1042 211
             C 1034 214 1026 217 1018 220"/>
    <!-- 小指 -->
    <path d="M 1038 214
             C 1030 218 1023 223 1016 228"/>
  </g>

  <!-- 手とバトンを結ぶ補助線（エネルギーの流れ） -->
  <g stroke="#dbe6ff" stroke-width="0.9" stroke-linecap="round" opacity="0.7">
    <path d="M 365 208 C 430 205 500 205 640 205"/>
    <path d="M 1035 210 C 960 208 880 206 760 204"/>
  </g>

  <!-- 背景の小さな星・ノード -->
  <g fill="#ffb86a" opacity="0.75">
    <circle cx="260" cy="80" r="1.5"/>
    <circle cx="360" cy="60" r="1.3"/>
    <circle cx="540" cy="70" r="1.3"/>
    <circle cx="860" cy="60" r="1.3"/>
    <circle cx="1040" cy="80" r="1.3"/>
    <circle cx="1160" cy="65" r="1.5"/>
  </g>
  <g fill="#7fd6e8" opacity="0.8">
    <circle cx="620" cy="95" r="1.4"/>
    <circle cx="780" cy="90" r="1.4"/>
    <circle cx="940" cy="100" r="1.4"/>
  </g>

</svg>