<svg xmlns="http://www.w3.org/2000/svg"
     width="1400" height="420" viewBox="0 0 1400 420">

  <defs>
    <!-- 背景：universion系の淡いクールグラデーション -->
    <linearGradient id="bgGrad" x1="0%" y1="0%" x2="100%" y2="100%">
      <stop offset="0%" stop-color="#f7f9fc"/>
      <stop offset="40%" stop-color="#edf3fb"/>
      <stop offset="100%" stop-color="#e1edf7"/>
    </linearGradient>

    <!-- ごく薄いグリッド -->
    <pattern id="gridPattern" x="0" y="0" width="40" height="40"
             patternUnits="userSpaceOnUse">
      <path d="M40 0 L0 0 0 40"
            fill="none"
            stroke="#cfd8ea"
            stroke-width="0.35"
            stroke-opacity="0.35"/>
    </pattern>

    <!-- 左：human側のリングストローク（暖色→グレー） -->
    <linearGradient id="warmRingStroke" x1="0%" y1="0%" x2="100%" y2="0%">
      <stop offset="0%" stop-color="#f2a864" stop-opacity="0.75"/>
      <stop offset="100%" stop-color="#8f939e" stop-opacity="0.6"/>
    </linearGradient>

    <!-- 右：AI側のリングストローク（ティール→グレー） -->
    <linearGradient id="coolRingStroke" x1="0%" y1="0%" x2="100%" y2="0%">
      <stop offset="0%" stop-color="#5bd6e8" stop-opacity="0.75"/>
      <stop offset="100%" stop-color="#8f939e" stop-opacity="0.6"/>
    </linearGradient>

    <!-- 左コアのグロー -->
    <radialGradient id="warmCore" cx="50%" cy="50%" r="60%">
      <stop offset="0%" stop-color="#fff8e5" stop-opacity="1"/>
      <stop offset="40%" stop-color="#ffb86d" stop-opacity="0.9"/>
      <stop offset="100%" stop-color="#ffb86d" stop-opacity="0"/>
    </radialGradient>

    <!-- 右コアのグロー -->
    <radialGradient id="coolCore" cx="50%" cy="50%" r="60%">
      <stop offset="0%" stop-color="#f7ffff" stop-opacity="1"/>
      <stop offset="40%" stop-color="#7ff0ff" stop-opacity="0.9"/>
      <stop offset="100%" stop-color="#7ff0ff" stop-opacity="0"/>
    </radialGradient>

    <!-- 中央の共鳴フィールド（紫） -->
    <radialGradient id="overlapField" cx="50%" cy="50%" r="60%">
      <stop offset="0%" stop-color="#fdfbff" stop-opacity="0.95"/>
      <stop offset="40%" stop-color="#c2a8ff" stop-opacity="0.75"/>
      <stop offset="100%" stop-color="#c2a8ff" stop-opacity="0"/>
    </radialGradient>

    <!-- 中央フィールド内の薄いグリッド -->
    <pattern id="overlapGrid" x="0" y="0" width="20" height="20"
             patternUnits="userSpaceOnUse">
      <path d="M20 0 L0 0 0 20"
            fill="none"
            stroke="#dde4ff"
            stroke-width="0.4"
            stroke-opacity="0.7"/>
    </pattern>

    <!-- human↔AI を結ぶ軌跡（オレンジ→ティール） -->
    <linearGradient id="pathStroke" x1="0%" y1="0%" x2="100%" y2="0%">
      <stop offset="0%" stop-color="#ffb86d" stop-opacity="0.9"/>
      <stop offset="50%" stop-color="#e6d7ff" stop-opacity="0.9"/>
      <stop offset="100%" stop-color="#5bd6e8" stop-opacity="0.9"/>
    </linearGradient>

  </defs>

  <!-- 背景＋グリッド -->
  <rect x="0" y="0" width="1400" height="420" fill="url(#bgGrad)"/>
  <rect x="0" y="0" width="1400" height="420" fill="url(#gridPattern)" opacity="0.23"/>

  <!-- ================= 左：Humanフィールド ================= -->
  <g id="human-field" transform="translate(320,240)">
    <!-- グロー -->
    <circle cx="0" cy="0" r="70" fill="url(#warmCore)" opacity="0.95"/>
    <!-- 同心円リング（線だけ） -->
    <g fill="none" stroke="url(#warmRingStroke)" stroke-width="0.9">
      <circle cx="0" cy="0" r="22"  opacity="0.9"/>
      <circle cx="0" cy="0" r="46"  opacity="0.8"/>
      <circle cx="0" cy="0" r="72"  opacity="0.7"/>
      <circle cx="0" cy="0" r="100" opacity="0.6"/>
      <circle cx="0" cy="0" r="132" opacity="0.5"/>
    </g>
    <!-- コア点 -->
    <circle cx="0" cy="0" r="4.5" fill="#ffffff" stroke="#f2a864" stroke-width="1"/>
  </g>

  <!-- ================= 右：Intelligenceフィールド ================= -->
  <g id="ai-field" transform="translate(1080,180)">
    <!-- グロー -->
    <circle cx="0" cy="0" r="70" fill="url(#coolCore)" opacity="0.95"/>
    <!-- 同心円リング -->
    <g fill="none" stroke="url(#coolRingStroke)" stroke-width="0.9">
      <circle cx="0" cy="0" r="20"  opacity="0.9"/>
      <circle cx="0" cy="0" r="44"  opacity="0.8"/>
      <circle cx="0" cy="0" r="70"  opacity="0.7"/>
      <circle cx="0" cy="0" r="100" opacity="0.6"/>
      <circle cx="0" cy="0" r="132" opacity="0.5"/>
    </g>
    <!-- コア点 -->
    <circle cx="0" cy="0" r="4.5" fill="#ffffff" stroke="#3acbe4" stroke-width="1"/>
  </g>

  <!-- ================= 中央：humans-intelligence field ================= -->
  <g id="overlap" transform="translate(700,210)">
    <!-- 紫の共鳴フィールド -->
    <circle cx="0" cy="0" r="110" fill="url(#overlapField)" opacity="0.9"/>
    <!-- 内側グリッド（構造が立ち上がる場） -->
    <circle cx="0" cy="0" r="88" fill="url(#overlapGrid)" opacity="0.7"/>
    <!-- フィールド内の薄いリング -->
    <g fill="none" stroke="#bfa9ff" stroke-width="0.8" opacity="0.8">
      <circle cx="0" cy="0" r="18"/>
      <circle cx="0" cy="0" r="36" opacity="0.8"/>
      <circle cx="0" cy="0" r="56" opacity="0.7"/>
      <circle cx="0" cy="0" r="78" opacity="0.6"/>
    </g>
    <!-- 核となる点 -->
    <circle cx="0" cy="0" r="4.5" fill="#ffffff" stroke="#c2a8ff" stroke-width="1"/>
  </g>

  <!-- Human ↔ AI を結ぶ軌跡（共鳴パス） -->
  <path d="
    M 320 240
    C 460 210 560 205 650 208
    C 730 210 820 202 900 192
    C 990 180 1040 178 1080 180"
    fill="none"
    stroke="url(#pathStroke)"
    stroke-width="2.4"
    stroke-linecap="round"
    opacity="0.97"/>

  <!-- パスに沿う、ほんの少し揺らいだサブライン（エコーの層） -->
  <path d="
    M 320 240
    C 450 220 555 214 645 216
    C 735 218 825 210 905 202
    C 995 192 1045 188 1085 190"
    fill="none"
    stroke="#d9e4ff"
    stroke-width="1.1"
    stroke-linecap="round"
    opacity="0.7"/>

  <!-- 左右フィールドの外縁を示す薄い大円（全体の場） -->
  <g fill="none" stroke="#c5cedf" stroke-width="0.7" opacity="0.5">
    <circle cx="320" cy="240" r="184"/>
    <circle cx="1080" cy="180" r="176"/>
  </g>

</svg>